<svg xmlns="http://www.w3.org/2000/svg" width="27.495" height="46.092" viewBox="0 0 27.495 46.092"><defs><style>.a{fill:#c6c6c5;mix-blend-mode:multiply;isolation:isolate;}.b{fill:#bcbcbc;}.c{fill:#161615;}.d{fill:#7c7c7c;}.e{fill:#fff;}</style></defs><g transform="translate(-876.659 -302.695)"><path class="a" d="M893.881,341.982V327.524a1.665,1.665,0,0,0-1.7-1.7H878.359a1.665,1.665,0,0,0-1.7,1.7v14.458a1.665,1.665,0,0,0,1.7,1.7H892.18a1.665,1.665,0,0,0,1.7-1.7" transform="translate(0 5.105)"/><path class="b" d="M880.03,312.933,892,323.585l10.651-5.82-.438,21.3-9.883,5.82-12.739-10.872Z" transform="translate(0.647 2.259)"/><path class="b" d="M902.519,318.581l-10.3,6.328L879.683,314l10.3-6.329Z" transform="translate(0.667 1.098)"/><path class="c" d="M889.952,343.58v0Z" transform="translate(2.934 4.225)"/><path class="d" d="M890.059,309.042l11.006,9.579-8.572,5.267-11.006-9.579Zm3.3,16.583,8.332-5.118v19.471l-8.332,5.118Zm-12.518-9.31,10.583,9.21V344.7l-10.583-9.211Zm22.715,24.614a.959.959,0,0,0,.071-.662V318.981a.829.829,0,0,0,.029-.145.968.968,0,0,0-.328-.809l-12.535-10.911a.967.967,0,0,0-1.143-.094l-10.3,6.328a.974.974,0,0,0-.458.745,1,1,0,0,0,.015.249v21.411a.957.957,0,0,0,.07.559l.01.026.006.011a.959.959,0,0,0,.383.431l12.2,10.62a.96.96,0,0,0,1.538.116l9.8-6.02a.969.969,0,0,0,.64-.568" transform="translate(0.493 0.923)"/><path class="e" d="M892.647,319.08s3.514-5.381,3.843-10.542l-6.039-5.051c-.33,5.161-3.844,10.542-3.844,10.542" transform="translate(2.195 0.175)"/><path class="d" d="M891.451,305.54l4.3,3.594a24.594,24.594,0,0,1-3.218,8.881l-4.473-3.893a28.041,28.041,0,0,0,3.393-8.582m6.268,3.235a.967.967,0,0,0-.344-.8l-6.04-5.052a.968.968,0,0,0-1.587.681c-.242,3.809-2.362,7.821-3.271,9.386a.966.966,0,0,0-.729,1.691l6.857,5.968a.968.968,0,0,0,1.4-1.321c.866-1.433,3.423-6.011,3.712-10.549" transform="translate(1.933 0)"/></g></svg>