<svg xmlns="http://www.w3.org/2000/svg" xmlns:xlink="http://www.w3.org/1999/xlink" viewBox="0 0 430.92 43.64"><defs><style>.cls-1{fill:none;}.cls-2{fill:#fff;}.cls-3{fill:#161616;}.cls-4{fill:#b11917;}.cls-5{clip-path:url(#clip-path);}</style><clipPath id="clip-path"><rect class="cls-1" width="430.92" height="43.64"/></clipPath></defs><g id="Capa_2" data-name="Capa 2"><g id="Capa_1-2" data-name="Capa 1"><g id="Grupo_1521" data-name="Grupo 1521"><rect id="Rectángulo_2986" data-name="Rectángulo 2986" class="cls-2" y="1.44" width="430.92" height="42.19"/><g id="Grupo_1520" data-name="Grupo 1520"><rect id="Rectángulo_2879" data-name="Rectángulo 2879" class="cls-3" x="430.34" y="1.66" width="0.58" height="41.8"/><rect id="Rectángulo_2880" data-name="Rectángulo 2880" class="cls-4" y="1.35" width="228.9" height="42.28"/><rect id="Rectángulo_2881" data-name="Rectángulo 2881" class="cls-3" x="228.88" y="1.35" width="202.04" height="0.58"/><g id="Grupo_1239" data-name="Grupo 1239"><g class="cls-5"><g id="Grupo_1238" data-name="Grupo 1238"><path id="Trazado_2574" data-name="Trazado 2574" class="cls-2" d="M38.32,9.43H30v18c0,7.47,5.13,10.81,12.23,10.81s12.23-3.34,12.23-10.81v-18H46.16v18c0,2.21-.84,4-3.92,4a3.51,3.51,0,0,1-3.92-3.06,3.36,3.36,0,0,1,0-.95ZM49.63,4.3,47.21,0,40.36,4.63l2,3.13ZM29.18,9.43H6.35v6.79h7.26V37.79h8.31V16.23h7.26Z"/><path id="Trazado_2575" data-name="Trazado 2575" class="cls-2" d="M218.23,10.74a34.91,34.91,0,0,0-10.64-1.63c-5.93,0-11,2.34-11,8.39,0,10.6,14.15,8.72,14.15,12.28,0,1.41-1.75,2-3.51,2a45.53,45.53,0,0,1-9.92-1.46l-1.13,6.63a41.3,41.3,0,0,0,11.44,1.42c6.34,0,11.43-2.72,11.43-9.18,0-10.31-14.15-8.14-14.15-11.64,0-1.26,1.13-1.76,2.88-1.76a32.61,32.61,0,0,1,8.76,1.42ZM195.36,9.53H174.79V37.91h20.78v-6.8H183.09V26.68h10.35V19.89H183.09V16.33h12.28ZM156.43,31.1V16.33h3.14c3.46,0,5.17,2.17,5.17,7.39S163,31.1,159.57,31.1Zm3.14,6.79c9.47,0,13.47-6,13.47-14.18S169,9.52,159.57,9.52h-11.4V37.91ZM145.24,9.53h-8.3V37.91h8.3ZM133.89,29.69a19.31,19.31,0,0,1-7.47,1.82c-4.21,0-6.51-2.54-6.51-7.8s2.3-7.8,6.51-7.8a18.78,18.78,0,0,1,7.47,1.88l1.5-6.27a21.82,21.82,0,0,0-9.92-2.42c-10.14,0-13.84,6.47-13.84,14.6s3.71,14.61,13.84,14.61a22.08,22.08,0,0,0,9.92-2.42Zm-23-20.16H90.29V37.91h20.78v-6.8H98.59V26.68h10.35V19.89H98.59V16.33h12.28ZM71.93,31.1V16.33h3.13c3.46,0,5.17,2.17,5.17,7.39s-1.71,7.38-5.17,7.38Zm3.13,6.79c9.47,0,13.48-6,13.48-14.18s-4-14.18-13.48-14.18H63.67V37.91Z"/><rect id="Rectángulo_2882" data-name="Rectángulo 2882" class="cls-3" x="228.88" y="43.06" width="202.04" height="0.58"/><path id="Trazado_2576" data-name="Trazado 2576" class="cls-3" d="M334.51,24.9a15.64,15.64,0,0,0-4.46-.66c-2.52,0-4.53,1-4.53,3.45,0,4.66,7.44,3.26,7.44,6.42,0,1.11-.91,2.23-3,2.23a17.76,17.76,0,0,1-4.4-.62l-.26,1.47a17.55,17.55,0,0,0,4.73.62c2.72,0,4.73-1.26,4.73-3.84,0-4.67-7.44-3.19-7.44-6.28,0-1.06.65-2,2.75-2a14.43,14.43,0,0,1,4,.63Zm-10.68-.47h-8.39V37.62h8.49V36.11h-6.67V31.53h5.68V30h-5.68V26h6.58Zm-18.28,0V37.62h8.22V36.11h-6.4V24.44Zm-7.31,1.69,2.26,6.69h-4.65l2.35-6.69ZM302,37.61h1.88l-4.52-13.28h-2.21l-4.59,13.28h1.8l1.18-3.45h5.3ZM283.56,25.94h3.6a2.46,2.46,0,1,1-.17,4.92h-3.43Zm8.18,11.67-3.26-5.39a3.66,3.66,0,0,0,2.83-3.82,3.84,3.84,0,0,0-3.69-4h-5.88V37.6h1.83V32.38h2.94l3.18,5.22ZM279.56,24.43h-8.39V37.61h8.49v-1.5H273V31.53h5.68V30H273V26h6.57ZM260,37.61V30.79l0-3.17h0l6.76,10h1.78V24.44h-1.67v6.82l0,3.35h0L260,24.43H258.3V37.61Zm-3.83-13.18h-8.4V37.61h8.49v-1.5h-6.67V31.53h5.68V30h-5.68V26h6.58Zm-12.8,11.41a7.13,7.13,0,0,1-2.5.45c-2.8,0-3.94-2.31-3.94-5.27S238,25.74,241,25.74a10.57,10.57,0,0,1,3.84.82l.33-1.4a11.48,11.48,0,0,0-4.36-.93c-4.27,0-5.72,3-5.72,6.79s1.45,6.79,5.72,6.79a11.3,11.3,0,0,0,4.36-.93v-5.7h-1.83Z"/><path id="Trazado_2577" data-name="Trazado 2577" class="cls-3" d="M413.81,18.65l1.51-.67-.16,3.07V37.26h8.38V8.63h-6L409.61,12l2.1,7.45ZM388.38,37.26h21.35V30.4h-7.5l-3.88.38v-.09c5.35-3.57,10.74-7.28,10.74-13.72,0-5.1-3.83-8.76-10.45-8.76a26.47,26.47,0,0,0-10.27,2.11L389.76,16a21.16,21.16,0,0,1,7-1.35c1.89,0,3.95.76,3.95,3.58,0,3.16-2.94,6.11-12.33,12.88Zm-13.22-6.44c-2.61,0-4-2.65-4-7.87s1.35-7.87,4-7.87,3.95,2.61,3.95,7.87-1.34,7.87-3.95,7.87m0,6.86c8.29,0,12.34-6.53,12.34-14.73S383.45,8.21,375.16,8.21,362.82,14.74,362.82,23s4.05,14.73,12.34,14.73m-34.86-.42h21.35V30.4h-7.5l-3.87.38v-.09C355.63,27.12,361,23.41,361,17c0-5.1-3.83-8.76-10.44-8.76a26.33,26.33,0,0,0-10.28,2.11L341.68,16a21.16,21.16,0,0,1,7-1.35c1.9,0,4,.76,4,3.58,0,3.16-2.95,6.11-12.34,12.88Z"/><path id="Trazado_2578" data-name="Trazado 2578" class="cls-3" d="M335,8.74A15.55,15.55,0,0,0,330.4,8c-2.58,0-4.79,1-4.79,3.64,0,4.67,6.46,3.74,6.46,5.61,0,.73-.8,1.12-1.82,1.12a19.24,19.24,0,0,1-4.39-.64l-.44,2.64a18.12,18.12,0,0,0,5,.63c2.79,0,5-1.21,5-4,0-4.57-6.46-3.49-6.46-5.35,0-.63.54-1,1.57-1a14.24,14.24,0,0,1,3.88.63Zm-10.18-.52h-8.93V20.85h9V18.14h-5.72V15.68H324V13h-4.78v-2h5.63ZM306.49,20.84V16.69l-.07-2.77h0l4.63,6.93h3.21V8.22h-3v4.16l.07,3.08h0l-4.83-7.24h-3V20.85Zm-10.15-2.51c-1.79,0-2.57-1.41-2.57-3.81s.79-3.77,2.57-3.77,2.56,1.37,2.56,3.77-.78,3.81-2.56,3.81m0,2.71c4.16,0,5.86-2.9,5.86-6.53S300.5,8,296.34,8s-5.87,2.87-5.87,6.48S292.18,21,296.34,21M289.2,8.22h-3.3V20.85h3.3Zm-4.86,9.29a8.89,8.89,0,0,1-3.4.82c-2.09,0-3.1-1.36-3.1-3.79s1-3.79,3.1-3.79a8.71,8.71,0,0,1,3.4.82l.59-2.49a9.69,9.69,0,0,0-4.36-1c-4.44,0-6,2.87-6,6.5s1.59,6.5,6,6.5A9.7,9.7,0,0,0,284.93,20Zm-10.55,0a8.88,8.88,0,0,1-3.39.82c-2.09,0-3.1-1.36-3.1-3.79s1-3.79,3.1-3.79a8.7,8.7,0,0,1,3.39.82l.6-2.49A9.76,9.76,0,0,0,270,8c-4.44,0-6,2.87-6,6.5s1.59,6.5,6,6.5A9.9,9.9,0,0,0,274.39,20ZM263.45,8.22h-8.94V20.85h9V18.14h-5.72V15.68h4.77V13h-4.78v-2h5.63ZM245,8.22V20.85h8.69V18.14h-5.38V8.21Zm-1.22,0h-8.93V20.85h9V18.14h-5.72V15.68h4.78V13h-4.78v-2h5.63Z"/></g></g></g></g></g></g></g></svg>